<?xml version="1.0" encoding="utf-8"?>
<!-- Generator: Adobe Illustrator 19.0.1, SVG Export Plug-In . SVG Version: 6.00 Build 0)  -->
<svg version="1.1" id="Слой_1" xmlns="http://www.w3.org/2000/svg" xmlns:xlink="http://www.w3.org/1999/xlink" x="0px" y="0px"
	 viewBox="0 0 512 512" style="enable-background:new 0 0 512 512;" xml:space="preserve">
<style type="text/css">
	.st0{fill:#E35656;}
	.st1{fill:#9D0000;}
</style>
<g>
	<g>
		<path class="st0" d="M256,5.2492661C117.7315292,5.2492661,5.2492661,117.7315292,5.2492661,256
			S117.7315292,506.7507324,256,506.7507324S506.7507324,394.2684631,506.7507324,256S394.2684631,5.2492661,256,5.2492661z
			 M428.2320251,95.1639633c-8.2897339,8.8137436-26.7779236,26.5908508-54.2669373,42.5902176
			c-13.0802002-29.6783752-29.7158508-52.9570313-44.9480591-70.1354294
			c-20.0787354-22.6611023-40.0264587-37.8183784-53.2938538-46.5759277
			C335.6975098,26.0390949,389.3843689,53.5841942,428.2320251,95.1639633z M237.8486176,20.9118214
			c-13.2673798,8.7388191-33.3461151,23.9335537-53.5183868,46.7069321
			c-15.2134705,17.159668-31.8491364,40.4195862-44.9293213,70.0792313
			c-28.2563019-16.4484482-47.0251236-34.7495651-54.9593048-43.2638397
			C123.588623,52.9105644,177.5748444,25.5150833,237.8486176,20.9118214z M84.4416046,417.5657349
			c8.0277252-8.6452637,27.2082825-27.3767395,56.1382141-44.0122681
			c12.7807312,28.6304626,28.7240143,51.4038391,43.319931,68.4698486
			c20.5279388,23.9710083,40.9247589,40.007843,54.0798645,49.0835876
			C177.649765,486.5222778,123.6073532,459.12677,84.4416046,417.5657349z M275.5734558,490.9571838
			c13.1551208-9.0757446,33.4396667-25.0751343,53.8553162-48.9338684
			c14.6146545-17.0472717,30.5392151-39.8019409,43.3200378-68.4137878
			c28.1252136,16.1678467,47.0625,34.3192139,55.4644775,43.2451172
			C389.3470154,458.4531555,335.6039734,485.9982605,275.5734558,490.9571838z M477.802063,335.9595032
			c-2.2828979,6.3623962-4.8465271,12.5936279-7.6721802,18.6566772
			c-8.4769287,18.3571777-19.2553711,35.441925-31.9426575,50.8799438
			c-9.7493896-10.3669434-29.9029236-29.4165039-59.5626831-46.1644287
			c2.7133484-7.1108093,5.2209167-14.5397034,7.4663696-22.2868042c0.9170227-3.1437378,1.77771-6.3623962,2.5823669-9.6183777
			c3.5367126-13.9971008,6.1939087-28.9672852,7.6348267-44.9480591l-21.1079102,72.1377258h-20.2284851l-2.3952942-8.0839233
			c-3.3869934-1.440918-6.8675232-2.8256531-10.4230042-4.1355591v12.2194824h-11.0404358
			c10.1610107,3.4805298,19.6296387,7.5411682,28.3871765,11.8825378
			c-12.0884705,27.3580017-27.1896667,49.0647583-41.0370178,65.3261414
			c-20.9770203,24.6072998-42.1598511,40.6253967-54.3044128,48.7467651V354.6161804h-14.9701843v125.9740601
			c-12.0510101-8.0464478-32.9905701-23.8587341-53.9114075-48.2975769
			c-13.9970856-16.3549194-29.2667542-38.2488403-41.448761-65.8314209
			c6.9986572-3.4805298,14.4650269-6.7739868,22.3804779-9.7306519c-0.8608246,0.0374756-1.7402802,0.0562134-2.6571808,0.0562134
			c-10.1049194,0-17.6274872-2.0397339-23.278656-5.539032c-0.7485504,0.3555603-1.4783783,0.7111206-2.2080841,1.0666504
			c-0.4492035-1.1976318-0.8795624-2.3951721-1.3099213-3.6115417
			c-11.6767273-9.9177246-13.3983917-27.5077515-15.0824585-44.7047729l-0.3180847-3.293335
			c-0.3930054-3.7052002-0.6737518-7.2419434-0.9543762-10.6475525
			c-1.9461975-24.0646667-3.4806519-25.4868774-14.5023727-25.4868774
			c0.7671738,22.8108521,3.9483643,43.7691345,8.7762833,62.8561707c0.3741608,1.5905151,0.7859039,3.1811829,1.2162552,4.734375
			c2.5636368,9.5247192,5.5577469,18.5817261,8.8324814,27.1708069
			c-30.3894806,17.159668-50.8051453,36.7518616-60.2925186,46.9315796
			c-12.9679146-15.6437988-23.9522858-32.9905701-32.5601006-51.6470947
			c-2.8256416-6.081665-5.3892784-12.3130188-7.6722908-18.6566772
			c-8.2335377-22.7733765-13.0614567-47.1186523-13.8473606-72.4743958h32.0174713v-14.9701996H20.350462
			c0.7859039-25.3557434,5.6138229-49.7010345,13.8473606-72.4745331c2.5636368-7.0920868,5.4642029-14.0531616,8.6827393-20.827179
			c8.4581947-17.8332977,19.0870171-34.4314804,31.5496521-49.4764862
			c9.356369,10.0487366,29.3790283,29.2666473,59.1323318,46.257843c-0.4492035,1.1789093-0.8795624,2.3765564-1.309906,3.5928192
			c10.3480835,0.6737366,22.1558075,2.5636292,32.3169403,7.4850922c4.8278046,2.3390961,9.000824,5.220932,12.5187073,8.6266632
			c0,0.0186157,0,0.0186157,0.0187378,0.0186157c5.5015411,1.8899994,11.2089081,3.6116638,17.1034698,5.1647339v-15.7000122
			c-15.3818207-4.3974609-29.3603058-10.1048126-41.822937-16.4110107
			c10.4790955-24.0459366,24.7381897-46.3514862,42.7211151-66.7483063
			c20.808548-23.5968552,41.8230438-38.7728615,54.0798645-46.5760422v123.7660904h14.9701843V31.4283733
			c12.1445618,7.7096386,32.9157715,22.6985645,53.6494141,46.108223
			c14.577301,16.4484558,30.5204773,38.7914734,42.9457397,67.3845901
			c-7.2980042,3.6863556-15.1011963,7.1669006-23.4096375,10.2920074h14.9328308l2.7694702,9.187912
			c3.9108887-1.6841888,7.7096252-3.4618073,11.3773804-5.2770081
			c7.8406372,21.4261169,13.5480042,45.9397583,15.4940796,73.6907806l10.5352783-35.2921906
			c-3.0876465-16.4485779-7.4663696-31.624588-12.6685486-45.5281372
			c29.023468-16.56073,48.7841187-35.2548523,58.4024963-45.4906693
			c12.2007446,14.8391876,22.6237488,31.1753769,30.9322205,48.7093124
			c3.2185364,6.7552795,6.118988,13.7163696,8.6826172,20.827179c8.2336426,22.7547607,13.0615845,47.1187897,13.8474731,72.4745331
			h-32.0174561v14.9701996h32.0174561C490.8636475,288.8408508,486.0357056,313.2048645,477.802063,335.9595032z"/>
		<path class="st0" d="M123.7569733,184.1242981c-3.9296265,16.3363037-6.6055374,34.0572052-7.5973663,53.1629639
			c9.5061035-0.4678192,15.1386566-3.480545,15.1386566-20.0601196v-15.7561035
			C131.2982635,192.4514923,129.951004,186.7441254,123.7569733,184.1242981z"/>
	</g>
	<path class="st1" d="M115.2814941,338.0250244v5.9807739H44.8075714v-5.9807739h18.1604881V171.804184H44.8075714V165.82341
		h75.1798325c26.3097458,0,60.1438675,4.3415985,60.1438675,41.3558655c0,23.9230347-13.4800873,38.0774994-46.3704681,42.7070618
		v2.4365997c30.6968384,4.6295471,38.5400238,17.410675,41.6645508,34.0017395
		c4.0810089,22.0402222-0.9437256,49.7953796,13.4673309,49.7953796c1.8874664,0,4.0810089-0.8196106,5.955719-2.1708069
		l2.5123749,5.427002c-3.7621765,2.4587402-10.9677124,6.8003235-23.8101349,6.8003235
		c-28.1972198,0-28.8221283-18.2302246-31.640564-46.5170288c-2.8184509-26.9355774-0.3188324-45.6974335-26.003685-45.6974335
		H96.8021698v84.062912H115.2814941z M112.1569672,247.9813538c12.8424225,0,29.7531128-2.1929474,29.7531128-30.7455444V201.464325
		c0-12.2494812-2.1935425-29.660141-29.1282043-29.660141H96.8021698v76.1771698H112.1569672z"/>
	<path class="st1" d="M204.8117523,171.804184V165.82341h70.7927399v5.9807739h-18.4793091v166.2208405h18.4793091v5.9807739
		h-70.7927399v-5.9807739h18.4793091V171.804184H204.8117523z"/>
	<path class="st1" d="M344.3918762,165.82341l34.4590149,114.2546844L413.0038147,165.82341h54.1881714v5.9807739h-18.1732483
		v166.2208405h18.1732483v5.9807739h-70.4866943v-5.9807739h18.4920654V180.2436981l-47.9390869,163.7621002h-4.3743286
		l-48.5639954-163.7621002v122.9600067c0,24.7426453,4.7059021,34.2675476,17.2294922,34.8213196v5.9807739H288.32901v-5.9807739
		c15.9669495-2.1708069,19.1042175-16.0594482,19.1042175-35.9067078V198.7397461
		c0-17.9644318-0.6249084-25.5843658-17.8544006-26.9355621V165.82341H344.3918762z"/>
	<rect x="176.8138733" y="248.5149078" class="st1" width="33.857605" height="14.9701929"/>
	<rect x="265.3532104" y="248.5149078" class="st1" width="33.857605" height="14.9701929"/>
</g>
</svg>
