<?xml version="1.0" encoding="utf-8"?>
<!-- Generator: Adobe Illustrator 19.0.1, SVG Export Plug-In . SVG Version: 6.00 Build 0)  -->
<svg version="1.1" id="Слой_1" xmlns="http://www.w3.org/2000/svg" xmlns:xlink="http://www.w3.org/1999/xlink" x="0px" y="0px"
	 viewBox="0 0 2721.1245117 2766.7734375" style="enable-background:new 0 0 2721.1245117 2766.7734375;" xml:space="preserve">
<style type="text/css">
	.st0{fill:#E35656;}
	.st1{fill:#9D0000;}
</style>
<g>
	<g>
		<path class="st0" d="M1379.0911865,356.8714905c-553.1865845,0-1003.2072754,450.0207214-1003.2072754,1003.2072754
			s450.0206909,1003.2073975,1003.2072754,1003.2073975s1003.2071533-450.020874,1003.2071533-1003.2073975
			S1932.27771,356.8714905,1379.0911865,356.8714905z M2068.159668,716.6035767
			c-33.1657715,35.262146-107.1335449,106.3850708-217.1120605,170.3955688
			c-52.3314209-118.7377319-118.8875732-211.8712769-179.8287354-280.598877
			C1590.8875732,515.7373657,1511.0803223,455.0959473,1458,420.0585938
			C1697.946167,440.04776,1912.7373047,550.2506104,2068.159668,716.6035767z M1306.4708252,419.5344849
			c-53.0803223,34.9624023-133.4116211,95.7537231-214.1171875,186.8657837
			c-60.8662109,68.6526489-127.4224243,161.7113037-179.7538452,280.3740845
			c-113.0482178-65.807251-188.1387939-139.0266113-219.882019-173.0906982
			C849.3377686,547.555542,1065.3266602,437.9512939,1306.4708252,419.5344849z M692.7177734,2006.4733887
			c32.1174316-34.5881348,108.8553467-109.5292969,224.5986328-176.0849609
			c51.1333008,114.545166,114.9194336,205.6572266,173.3150635,273.9350586
			c82.128418,95.9038086,163.7322998,160.064209,216.3635254,196.3745117
			C1065.6263428,2282.3557129,849.4127197,2172.7514648,692.7177734,2006.4733887z M1457.4008789,2300.098877
			c52.6312256-36.3103027,133.7858887-100.3208008,215.46521-195.7753906
			c58.4705811-68.2028809,122.1817627-159.2399902,173.3155518-273.7108154
			c112.5236816,64.6845703,188.288208,137.3049316,221.9030762,173.0157471
			C1912.5878906,2170.0563965,1697.5718994,2280.2592773,1457.4008789,2300.098877z M2266.4802246,1679.9819336
			c-9.1335449,25.4547119-19.3901367,50.3847656-30.6950684,74.6418457
			c-33.9145508,73.4437256-77.0371094,141.7966309-127.7966309,203.5612793
			c-39.0053711-41.4761963-119.6361084-117.6899414-238.2993164-184.6953125
			c10.8557129-28.4490967,20.8879395-58.1706543,29.871582-89.1654053
			c3.6688232-12.5775146,7.1123047-25.4547119,10.331543-38.4813232
			c14.1497803-55.9998779,24.7807617-115.8928223,30.5455322-179.8288574l-84.4488525,288.6096191h-80.9302979
			l-9.5831299-32.3422852c-13.5507813-5.7647705-27.4758301-11.3048096-41.7005615-16.5455322v48.8878174h-44.1707764
			c40.6523438,13.9250488,78.5345459,30.1708984,113.5718994,47.539917
			c-48.3636475,109.4543457-108.7807617,196.2989502-164.1815186,261.3577881
			c-83.9251709,98.4492188-168.6738281,162.534668-217.2618408,195.0268555v-503.9245605h-59.8930664v503.9990234
			c-48.2138672-32.1923828-131.9891357-95.4545898-215.6894531-193.2297363
			c-55.9998779-65.4329834-117.0909424-153.0266113-165.8289185-263.3792725
			c28.0003662-13.9250488,57.8718872-27.1015625,89.5402222-38.930542
			c-3.4440918,0.1499023-6.9625244,0.2248535-10.6308594,0.2248535c-40.4279785,0-70.524353-8.1606445-93.133667-22.1606445
			c-2.994812,1.4224854-5.9146729,2.8449707-8.8341675,4.2674561c-1.7971191-4.7915039-3.5189209-9.5826416-5.2407227-14.4490967
			c-46.7164307-39.6789551-53.6044312-110.0534668-60.3421021-178.8554688l-1.272644-13.1761475
			c-1.5723267-14.8237305-2.6954956-28.9736328-3.8182373-42.598877
			c-7.786377-96.2783203-13.9254761-101.9681396-58.0213013-101.9681396
			c3.0693359,91.2619629,15.7966309,175.1121826,35.1122437,251.4758301
			c1.4970093,6.3634033,3.1442871,12.7272949,4.8660278,18.9412842
			c10.2566528,38.1066895,22.2355347,74.3421631,35.3370972,108.7054443
			c-121.5826416,68.65271-203.2619019,147.0373535-241.2191772,187.7646484
			c-51.8822021-62.5881348-95.8286133-131.9892578-130.2669067-206.6306152
			c-11.3048706-24.331543-21.5615234-49.262085-30.6954346-74.6418457
			c-32.9408569-91.1120605-52.2564697-188.5130615-55.4007263-289.956665h128.0959778v-59.8929443H436.3009949
			c3.1442566-101.4437256,22.4598694-198.8447266,55.4007263-289.9571533
			c10.2566528-28.3742065,21.8612671-56.2241821,34.7380371-83.3257446
			c33.8396606-71.3477173,76.3636475-137.7539673,126.2243042-197.9462891
			c37.4331055,40.203125,117.5400391,117.0904541,236.5775146,185.0690918
			c-1.7971802,4.7166138-3.5189209,9.5081177-5.2407227,14.3742065
			c41.4008179,2.6954956,88.6413574,10.2565918,129.2941284,29.9464722
			c19.3151245,9.3582764,36.0105591,20.8879395,50.085022,34.5136719c0,0.0744629,0,0.0744629,0.0749512,0.0744629
			c22.0107422,7.5615845,44.8448486,14.4495239,68.4278564,20.663147v-62.8128662
			c-61.5397949-17.5933838-117.4651489-40.4274902-167.3258057-65.6573486
			c41.9248657-96.2033691,98.9729004-185.4437866,170.9191895-267.0476685
			c83.2512207-94.4066162,167.3262939-155.1230164,216.3635254-186.3421021v495.1652222h59.8930664V461.6092529
			c48.5880127,30.8448486,131.6898193,90.8127441,214.6412354,184.470459
			c58.3210449,65.807251,122.1068115,155.1975098,171.8181152,269.5933228
			c-29.197998,14.7484131-60.4171143,28.6734009-93.6577148,41.1763916h59.7435303l11.0800781,36.7591553
			c15.6467285-6.7381592,30.8448486-13.8500977,45.5186768-21.1123657
			c31.3690186,85.7219238,54.203125,183.7965088,61.9890137,294.8232422l42.1497803-141.1976318
			c-12.3531494-65.8076172-29.871582-126.5240479-50.6845703-182.1495972
			c116.1175537-66.2564087,195.1761475-141.0481567,233.6575928-181.9997559
			c48.8129883,59.3688354,90.5134277,124.7269287,123.7541504,194.8769531
			c12.876709,27.0266113,24.480957,54.8766479,34.7375488,83.3257446
			c32.9411621,91.0374756,52.2568359,188.5134277,55.401123,289.9571533h-128.0959473v59.8929443h128.0959473
			C2318.7370605,1491.4688721,2299.4213867,1588.9448242,2266.4802246,1679.9819336z"/>
		<path class="st0" d="M850.0112915,1072.517334c-15.7216797,65.3585205-26.4274902,136.2565918-30.3956299,212.6951904
			c38.0321655-1.871582,60.5669556-13.9249268,60.5669556-80.2568359v-63.0372314
			C880.1826172,1105.8328857,874.7924805,1082.9987793,850.0112915,1072.517334z"/>
	</g>
	<path class="st1" d="M816.102478,1688.2457275v23.9278564H534.149353v-23.9278564h72.6567993v-665.0188599H534.149353v-23.9279175
		h300.7805786c105.260498,0,240.6245117,17.369873,240.6245117,165.4571533
		c0,95.7116699-53.9313354,152.3410645-185.5196533,170.8630371v9.7484131
		c122.8123779,18.5219727,154.1915283,69.6567383,166.6921387,136.034668
		c16.3273926,88.1787109-3.7756348,199.2220459,53.880249,199.2220459c7.5515137,0,16.3273926-3.2790527,23.8277588-8.6849365
		l10.0515137,21.7122803c-15.0517578,9.8370361-43.8797607,27.2069092-95.2598877,27.2069092
		c-112.8118286,0-115.3120117-72.935791-126.5880737-186.105957
		c-11.276062-107.7642822-1.2755737-182.8270264-104.0358887-182.8270264H742.170166v336.3201904H816.102478z
		 M803.6018066,1327.9976807c51.380188,0,119.0366821-8.7736816,119.0366821-123.0073242v-63.0987549
		c0-49.0079346-8.7759399-118.6647339-116.536499-118.6647339H742.170166v304.770813H803.6018066z"/>
	<path class="st1" d="M1174.2965088,1023.2268677v-23.9279175h283.2286377v23.9279175h-73.932373v665.0188599h73.932373v23.9278564
		h-283.2286377v-23.9278564h73.932251v-665.0188599H1174.2965088z"/>
	<path class="st1" d="M1732.7307129,999.2989502l137.8641357,457.1118164l136.6395264-457.1118164h216.796875v23.9279175
		h-72.7077637v665.0188599h72.7077637v23.9278564h-282.0042725v-23.9278564h73.9833984v-631.2539063l-191.7954102,655.1817627
		h-17.5009766l-194.2955322-655.1817627v491.9401855c0,98.9907227,18.8275146,137.0981445,68.9320068,139.3137207v23.9278564
		h-172.9168701v-23.9278564c63.8807373-8.6849365,76.432373-64.2508545,76.432373-143.6561279v-413.5985107
		c0-71.8723145-2.5001221-102.3582764-71.4321289-107.7642212v-23.9279175H1732.7307129z"/>
	<g>
		<path class="st1" d="M314.8476563,1244.1677246l6.057312,0.6361084l-6.5288696,61.9730225l-6.0572815-0.6397705
			l1.6815491-15.9748535l-168.2844696-17.7296143l-1.6815796,15.9748535l-6.0609436-0.6359863l6.9638824-66.1038818
			c2.4382629-23.1361084,9.9797211-52.4172363,47.4347534-48.4692383
			c24.2401428,2.5516357,37.3124847,15.9053955,38.9501801,45.3182373l2.4784851,0.2595215
			c7.526825-26.4992676,21.1950226-32.019165,38.2848358-33.0062256
			c22.6865234-1.2282715,50.3190308,6.1376953,51.6533203-6.5324707c0.171814-1.6523438-0.449646-3.666626-1.6523132-5.4650879
			l5.7392273-1.6231689c2.1312256,3.5678711,5.8708801,10.3673096,4.6791382,21.6593018
			c-2.6100769,24.7884521-21.1219177,23.395752-50.0265503,22.8547363
			c-27.5301514-0.3948975-46.3015442-4.5987549-48.6813202,17.9853516l-1.7693024,16.8010254l85.1054993,8.9671631
			L314.8476563,1244.1677246z M223.3924408,1237.3171387c1.1880646-11.2919922,0.5519867-26.3968506-28.3672791-29.4456787
			l-15.9748688-1.6815186c-12.3960571-1.3050537-30.2243042-1.2355957-32.7210693,22.4525146l-1.4804993,14.0447998
			l77.1217041,8.1263428L223.3924408,1237.3171387z"/>
		<path class="st1" d="M242.4964905,1021.7368774c2.4346161-8.8099976,2.354187-13.7157593,2.2189331-16.3404541
			l113.461792,31.3648071l2.5077209-9.0767822l5.3407898,1.4769287l-9.7420959,35.2397461l-17.8867493-4.9460449
			c15.3790283,14.0228271,12.9407349,31.1638184,11.3907776,36.7714844
			c-5.7575378,20.8221436-24.4009705,16.5305176-28.9375305,15.2766113l-90.504776-25.0151367l-2.5808411,9.34375
			l-5.3407898-1.4769287l5.4614258-19.7547607c1.2538605-4.5401611,2.0946503-8.619751,2.2189331-16.3439941l93.9739227,25.9764404
			c13.8802185,3.8383789,16.9399414-3.0743408,17.9744568-6.8103027c1.9191895-6.9418945-7.6584167-19.0748291-19.6743164-22.394043
			l-77.4214478-21.4034424l-2.5808411,9.34729l-5.3408051-1.4768066L242.4964905,1021.7368774z"/>
		<path class="st1" d="M332.3395996,882.6750488c-17.703949-5.8233032-34.7755127-0.5117798-40.0395203,11.7014771
			c-3.2900391,7.6328735-3.2388611,17.3092041,5.4102478,21.0378418c5.8525696,2.5223999,16.0662537,5.4176025,25.9107056-4.8216553
			l11.9573975-12.3412476c15.349762-16.0114136,33.3827515-10.9520874,43.8121033-6.4557495
			c21.6227417,9.3217163,32.3883972,28.4403687,24.1633606,47.522522
			c-4.2770386,9.9212036-9.0109863,11.803833-15.3132019,16.6292114c-0.9468079,0.796875-2.2591553,1.7400513-2.8074951,3.012207
			c-1.3160095,3.0523682,0.6031799,6.2948608,4.1673584,7.8302002l-1.8643494,4.324585l-42.2328796-18.2047729l2.303009-5.3444824
			c19.5536804,7.8265991,44.2982788,4.3135986,50.8783264-10.9484253
			c3.6190186-8.3968506,2.0398254-18.7312012-9.6616821-23.7758789
			c-14.2494507-6.1413574-22.0467834,0.7530518-28.1698914,6.5617676l-11.4090576,11.0690918
			c-14.9440002,14.3737183-30.8311157,9.9395142-40.5001221,5.7721558
			c-20.354248-8.7733765-29.7381287-25.4903564-21.7323914-44.0606689
			c6.0316772-13.9935913,13.3428345-14.1580811,14.987854-17.9744873c0.6579895-1.5280151,0.5921936-4.8728638-2.2408752-6.6970215
			l1.4256897-3.3082886l32.8197632,14.1470947L332.3395996,882.6750488z"/>
		<path class="st1" d="M400.2090454,755.822876c-16.8339539-7.9910889-34.4318848-4.8582764-41.1837463,6.5946655
			c-4.2185364,7.1612549-5.3773499,16.7644653,2.7380371,21.5459595c5.48703,3.2351685,15.2583923,7.3879395,26.305542-1.5390015
			l13.4049988-10.7473755c17.2287292-13.9569702,34.4830322-6.6860352,44.2690125-0.9175415
			c20.2848206,11.9500732,28.5683594,32.2640991,18.0220032,50.1654663
			c-5.48703,9.3070679-10.4147339,10.5792236-17.272583,14.5784302c-1.0418396,0.6726074-2.4602051,1.4439697-3.1620789,2.6356812
			c-1.6888733,2.8659668-0.1864319,6.3204956,3.1547546,8.2871704l-2.3907471,4.0577393l-39.6154785-23.3445435l2.9537048-5.0081177
			c18.4167786,10.210022,43.4026489,9.8188477,51.8397217-4.4963989c4.6389465-7.8777466,4.3684082-18.3253784-6.6092834-24.7957764
			c-13.3647766-7.8740845-21.9627075-2.0105591-28.7657166,2.9829712l-12.7031555,9.5556641
			c-16.6218872,12.3887329-31.8291016,5.9988403-40.894928,0.65802
			c-19.0930786-11.2518921-26.3128357-29.007019-16.0479736-46.4295044
			c7.735199-13.1234741,15.0097961-12.3740845,17.1190491-15.9529419c0.8444519-1.4329834,1.1990356-4.7631836-1.385437-6.9273071
			l1.8277893-3.0999146l30.787262,18.1389771L400.2090454,755.822876z"/>
		<path class="st1" d="M383.7004395,615.4889526c4.3282166-5.7575684,13.6353149-7.0772095,20.9428101-1.5828857
			c6.8615112,5.15802,8.8428345,14.9659424,4.51828,20.7234497c-3.4983826,4.6499023-12.9187927,7.961853-21.3302612,1.6376953
			C380.5237427,630.7728882,379.0395813,621.6887817,383.7004395,615.4889526z M420.5303955,671.5910645l-4.4305725-3.3302002
			l12.4837952-16.6036377c2.4967651-3.3192749,4.6060181-6.5873413,8.0495911-14.3920288l94.0909119,70.7390747l5.6588135-7.5304565
			l4.4268799,3.3302002l-27.793335,36.9725342l-4.430542-3.3302612l5.8269653-7.7461548l-87.8910217-66.078186
			L420.5303955,671.5910645z"/>
		<path class="st1" d="M636.4433594,578.7211304c3.0048828,12.4728394,0.6287842,20.5553589-5.6990356,27.1536255
			c-7.0917969,7.3952637-18.5045166,4.8948364-25.4683838-0.2485352c2.3468628,9.1571655,2.6575928,24.0390625-7.1174316,34.234436
			c-12.0780029,12.5935059-28.8059082,8.8319092-41.0009155-2.8623047
			c-22.3904419-21.4691772-12.045166-41.8636475,9.7493896-67.3942261l-22.5914307-21.6593018
			c-10.1954346-9.7786255-17.5760498-6.8797607-23.3262329-0.8809814
			c-8.2433472,8.5942993-5.3956299,13.6279907-3.9955444,14.9696045c2.9975586,2.8769531,6.7042847,2.2116089,10.8314209,2.7124634
			c3.1401978,0.3253174,7.0808716,1.418335,10.6779785,4.8655396c6.9967651,6.7116699,7.9874268,16.4829712,2.4273071,22.2807617
			c-7.6657715,7.9984131-18.7312012,3.5275879-24.3278809-1.8387451
			c-9.796936-9.3912354-15.5215759-30.2316284,6.3278198-53.0241699
			c12.2681274-12.7944946,26.5797119-21.7141113,40.3721924-8.4846191l54.7751465,52.5233765
			c4.4013062,4.2148438,9.8152466,10.1734619,12.8822632,6.9747925c2.1055908-2.1969604,1.8497314-5.1323853,1.3745117-9.0402222
			L636.4433594,578.7211304z M570.906189,573.4388428c-15.4630737,19.3233643-5.0410156,30.4692383,5.1543579,40.2442627
			c8.3968506,8.0495605,16.1613159,13.9606323,22.2953491,7.5633545c3.8310547-3.9992065,2.6503296-13.5731201,1.5390015-20.0142822
			L570.906189,573.4388428z"/>
		<path class="st1" d="M716.4237671,520.0235596l3.4106445,4.3684082l-35.3859863,27.6142578l-3.4069824-4.3684692
			l7.6437988-5.9658813l-67.6647339-86.7139282l-7.8631592,6.1340637l-3.4106445-4.3647766l20.3140259-15.8542175
			c2.1860352-1.7035217,5.7026978-6.2035217,7.5926514-8.7331848l12.2717896,15.7262878
			c-3.9260864-22.5914612,7.1685791-30.8969421,10.4439697-33.452179
			c18.7823486-14.6588745,33.0756226,2.303009,40.2332764,11.4785156l51.642334,66.180542l7.6474609-5.9658813l3.4069824,4.3684082
			l-35.3859863,27.6105957l-3.4069824-4.3684082l6.335083-4.9423828l-46.1918335-59.1910706
			c-10.5646362-13.5439148-18.5228271-21.0378723-24.8579102-16.09552
			c-6.5544434,5.1141663-6.2875977,18.9614868,2.9171143,30.7580261l47.3799438,60.7227783L716.4237671,520.0235596z"/>
		<path class="st1" d="M787.7294312,390.6234436l50.4506226-28.9814148l6.2108154,10.8132019l-50.4506226,28.9777527
			L787.7294312,390.6234436z"/>
		<path class="st1" d="M876.7719727,226.0310974l-2.3322754-5.6295929l57.8312378-23.9586487l2.3322754,5.6295929
			l-15.0975342,6.2546997l64.7731323,156.348999l15.0975342-6.2546692l2.3322754,5.6295776l-57.8312378,23.9586487
			l-2.3322754-5.6295776l15.0975342-6.2546997L891.8695068,219.776413L876.7719727,226.0310974z"/>
		<path class="st1" d="M1099.0236816,327.1955261l1.4147949,5.3590698l-43.3990479,11.456604l-1.4146729-5.3591003
			l9.3764648-2.474823l-28.0748291-106.3516846l-9.6433105,2.5479279l-1.4147949-5.3590698l24.9165039-6.5763855
			c2.6757813-0.7055206,7.6802979-3.4618225,10.4146729-5.0410309l5.0922852,19.2868195
			c5.2858887-22.3136444,18.7493896-25.5817261,22.7705078-26.6418457
			c23.0374756-6.0828857,29.4968262,15.1377411,32.4688721,26.3896027l21.425293,81.1684265l9.3765869-2.474823l1.4110107,5.3554382
			l-43.3952637,11.4565735l-1.4147949-5.3554382l7.7681885-2.0507813l-19.1625977-72.5997467
			c-4.3830566-16.6072845-8.7478027-26.6308746-16.5195313-24.5800934
			c-8.0349121,2.120224-13.2441406,14.9586182-9.4240723,29.4237366l19.659668,74.471405L1099.0236816,327.1955261z"/>
		<path class="st1" d="M1225.5177002,136.2208862l6.2436523,47.5115356l16.2015381-2.1312103l0.7237549,5.494339
			l-16.201416,2.1275482l11.5150146,87.6059113c0.866333,6.5910034,1.7839355,15.6897278,9.7457275,14.6442261
			c1.9228516-0.2522278,4.0102539-1.3671875,5.7539063-2.9902649l3.1584473,4.8911743
			c-3.7799072,5.2457581-10.4403076,11.9902954-21.4217529,13.4305725
			c-14.8305664,1.9520874-21.5532227-6.6641235-23.7539063-23.4176331l-11.9134521-90.6253967l-9.8847656,1.3013916
			l-0.7237549-5.494339l9.8883057-1.2977295l-4.9094238-37.3490143L1225.5177002,136.2208862z"/>
		<path class="st1" d="M1403.2810059,266.9516296c-6.9382324,16.4573975-16.684082,30.7470398-33.3059082,31.013916
			c-25.4866943,0.4094238-47.5371094-26.66745-48.1074219-62.1265411
			c-0.5336914-33.2438049,18.9395752-62.9270935,39.9957275-63.2670593
			c18.0036621-0.2887878,42.1195068,17.6125641,42.7629395,57.5022278l-52.9108887,0.8517456l0.4057617,25.208847
			c0.277832,17.1775513,2.2518311,36.5411682,18.5959473,36.2779541
			c14.6807861-0.2376099,25.2015381-18.1389771,28.9301758-27.3437195L1403.2810059,266.9516296z M1377.3922119,224.9709778
			l-0.208374-12.7433319c-0.2705078-16.8997345-1.6595459-34.3331757-13.84729-34.135788
			c-10.8059082,0.171814-12.2827148,11.5589447-12.0926514,23.468811l0.3837891,23.8233948L1377.3922119,224.9709778z"/>
		<path class="st1" d="M1511.5153809,303.8692932l-46.2138672-5.4321899l0.6507568-5.5016479l9.6287842,1.1295776
			l12.8310547-109.2066956l-9.899292-1.1624756l0.6434326-5.5016479l20.90979,2.4565582
			c4.949707,0.5812378,11.1275635,0.1937408,16.2088623-0.3253479l-1.6450195,14.0301056l0.5483398,0.062149
			c4.8839111-8.34935,13.4744873-12.6373291,23.3811035-11.4748688
			c22.5549316,2.6502991,21.3631592,22.3136444,20.873291,26.4371338
			c-1.5499268,13.203949-9.9797363,20.8587189-19.3306885,19.7620544
			c-5.227417-0.6141357-13.8179932-5.8087158-12.2680664-19.0126648c0.416748-3.5751495,1.5865479-8.7368164,4.2038574-12.0560913
			c1.973999-2.5552368,3.8164063-4.0138245,4.2697754-7.8631439c0.1315918-1.1003265-0.0804443-1.6852112-1.973999-2.1860352
			c-0.5483398-0.0621338-1.3745117-0.1608429-1.9228516-0.2266388c-5.8708496,0.146225-17.7807617,6.5581055-21.4362793,37.6414642
			l-8.4371338,71.7955475l9.6287842,1.1332092L1511.5153809,303.8692932z"/>
		<path class="st1" d="M1696.3997803,329.5789795c-9.3947754,8.7368164-17.6052246,10.6267395-26.4589844,8.3493347
			c-9.9212646-2.5516052-13.3428955-13.7266846-12.2755127-22.3172913
			c-6.8286133,6.5361633-19.6450195,14.1068726-33.3242188,10.5901794
			c-16.8961182-4.3464661-21.8237305-20.7709656-17.6125488-37.1333313
			c7.7279053-30.0415344,30.5751953-31.0285339,63.5119629-24.5581665l7.7937012-30.3083954
			c3.5239258-13.6791687-2.6246338-18.6909637-10.6743164-20.7636719
			c-11.5296631-2.9646759-14.5198975,1.9849854-15.0024414,3.8639374c-1.038208,4.0211487,1.3598633,6.9273224,2.9464111,10.765686
			c1.2574463,2.8988647,2.2371826,6.8688202,1.0015869,11.6941833
			c-2.4199219,9.3875275-10.4476318,15.0463562-18.2266846,13.0431061
			c-10.7327881-2.759964-12.2608643-14.5930634-10.3306885-22.1016235
			c3.3778076-13.1454468,18.7312012-28.356308,49.3137207-20.489502
			c17.166626,4.4159241,31.9570313,12.5093842,27.1901855,31.0175629l-18.9066162,73.4953613
			c-1.5134277,5.900116-4.050415,13.5402527,0.241333,14.6442566c2.9462891,0.7603455,5.3809814-0.9029236,8.5539551-3.2315369
			L1696.3997803,329.5789795z M1668.8586426,269.8760986c-24.4191895-3.9955444-29.0252686,10.5499878-32.5418701,24.2291565
			c-2.8952637,11.2664795-4.2404785,20.9281616,4.3427734,23.1361389
			c5.3664551,1.3818054,13.1308594-4.3428345,18.1975098-8.4736328L1668.8586426,269.8760986z"/>
		<path class="st1" d="M1831.553833,356.9373169c-20.7709961,28.0053711-36.7385254,25.3441162-46.4770508,21.3485718
			c-26.3933105-10.8241882-30.7141113-45.5265808-19.3671875-73.1992798
			c16.2891846-39.7142029,48.7872314-50.3336487,67.2332764-42.7666016
			c12.2973633,5.0447083,25.6109619,23.6735229,16.9912109,44.6857605
			c-5.987915,14.6040344-16.2893066,16.3660278-22.4379883,13.843689c-8.9708252-3.6775208-9.2266846-15.45578-5.4467773-24.6824646
			c3.0487061-7.4281311,9.0146484-7.3769531,12.2827148-10.228302c1.2940674-0.9650574,2.3322754-2.0361633,2.9610596-3.5751648
			c2.6246338-6.4045715,0.2120361-12.1876831-5.9366455-14.710022
			c-13.3282471-5.4650879-20.4200439,5.9951477-27.3583984,22.9058533l-16.5012207,40.2296143
			c-6.4118652,15.627594-13.6427002,36.9103394,3.012207,43.7389832
			c12.0413818,4.9423218,28.3453369-6.3351135,37.9814453-20.3432922L1831.553833,356.9373169z"/>
		<path class="st1" d="M1986.3236084,286.3408203l-23.3444824,41.8563538l14.2786865,7.9581909l-2.697876,4.8399658
			l-14.2786865-7.9581909l-43.0334473,77.1838379c-3.2387695,5.8050842-7.9326172,13.653595-0.9211426,17.5687256
			c1.696167,0.9431152,4.0357666,1.2977295,6.404541,1.0308533l-0.3874512,5.8123779
			c-6.1633301,1.9520874-15.5289307,3.3923645-25.2088623-2.0032654c-13.0650635-7.285553-13.3135986-18.2120667-5.088623-32.969635
			l44.5249023-79.8451233l-8.7075195-4.8582458l2.6977539-4.8399963l8.7076416,4.8582764l18.3509521-32.9038391
			L1986.3236084,286.3408203z"/>
		<path class="st1" d="M2035.3521729,379.1047363l3.1804199-4.5365906l17.0130615,11.9244995
			c3.4069824,2.387085,6.7407227,4.3866882,14.6589355,7.5670471l-67.5844727,96.4231567l7.7132568,5.4065857l-3.1802979,4.5365601
			l-37.8863525-26.5541077l3.1802979-4.5402222l7.9399414,5.5674438l63.1318359-90.0697632L2035.3521729,379.1047363z
			 M2090.2077637,340.4177551c5.9001465,4.1344604,7.5305176,13.394043,2.2810059,20.8806458
			c-4.9277344,7.0333252-14.6660156,9.3436584-20.5661621,5.209198c-4.7595215-3.3411865-8.3859863-12.6482849-2.3469238-21.2681274
			C2074.8251953,337.7528381,2083.8618164,335.965271,2090.2077637,340.4177551z"/>
		<path class="st1" d="M2164.6572266,472.3475342l-3.6774902,4.1417542l-7.4572754-6.6202393l-33.5290527,69.8763123
			l40.9570313-27.3473511c1.8862305-1.2904053,7.333252-5.3407898,8.6418457-6.3972473
			c1.4987793-1.2684937,2.9682617-2.924469,4.050293-4.5585022c4.8913574-6.7628174,2.0397949-11.8916016-1.4841309-15.0207825
			l3.6848145-4.1417542L2198.625,502.5133362l-3.6777344,4.1417847c-9.1608887-5.5418701-18.1535645,1.663269-29.8586426,9.4203796
			l-76.6647949,50.4579468l-8.2834473-7.3549805l51.8432617-108.4353943l-6.2143555-5.519928l3.6774902-4.1417847
			L2164.6572266,472.3475342z"/>
		<path class="st1" d="M2230.611084,674.3803101c-17.0788574,5.2384033-34.2893066,6.9309692-45.1608887-5.6442261
			c-16.6694336-19.2868042-10.0527344-53.5725098,16.7790527-76.7634888
			c25.1577148-21.7433472,60.4194336-25.855896,74.1936035-9.9248657
			c11.7783203,13.6279907,13.5183105,43.6110229-16.6621094,69.7008667l-34.6037598-40.0358887l-19.0820313,16.4866943
			c-12.9919434,11.2335815-26.583252,25.1723022-15.8945313,37.5391235
			c9.6069336,11.112915,30.0854492,7.6912842,39.5388184,4.6462402L2230.611084,674.3803101z M2246.1984863,627.581604
			l9.6435547-8.3310547c12.7871094-11.0545044,25.267334-23.3079834,17.2907715-32.5310059
			c-7.0625-8.1738892-16.7424316-2.0032349-25.7570801,5.7868042l-18.0292969,15.5800781L2246.1984863,627.581604z"/>
		<path class="st1" d="M2312.9128418,714.0689087l31.8034668,48.699585l-10.4328613,6.817627l-31.8110352-48.699585
			L2312.9128418,714.0689087z"/>
		<path class="st1" d="M2511.9370117,840.4202271l-94.7231445,74.0802612l118.762207-18.3911743l18.9943848,43.9912109
			l-5.5930176,2.4163208l-6.3679199-14.746582l-155.3693848,67.0761719l6.3679199,14.746582l-5.6003418,2.4163208
			l-24.6970215-57.217041l5.5930176-2.4127197l6.4777832,15.0025024l147.487793-63.6728516l-169.8818359,27.1828613
			l-1.5354004-3.5604858l136.0678711-105.5036011l-114.9387207,49.6207886
			c-23.1396484,9.9906616-30.392334,17.6454468-26.5102539,28.038269l-5.5930176,2.4126587l-15.1560059-35.0898438
			l5.6003418-2.4163818c7.6328125,12.0889893,21.6994629,9.0366211,40.2626953,1.0198975l96.6313477-41.7174072
			c16.7790527-7.2453613,23.6809082-10.8278198,18.9140625-25.3624268l5.5930176-2.4126587L2511.9370117,840.4202271z"/>
		<path class="st1" d="M2438.5112305,1159.8847656c-12.1074219-4.255127-17.6052246-10.6413574-19.7109375-19.5354004
			c-2.354248-9.9760742,5.9438477-18.204834,14.052002-21.2572021c-8.9707031-3.0048828-21.6337891-10.8277588-24.887207-24.576416
			c-4.0136719-16.9838867,8.2324219-28.9887695,24.6826172-32.8782959
			c30.1950684-7.1392822,41.6953125,12.6300049,51.3022461,44.8027344l30.458252-7.201416
			c13.7521973-3.2498779,15.331543-11.0252686,13.4160156-19.1149902
			c-2.7416992-11.5919189-8.5102539-11.9355469-10.4038086-11.489502c-4.0429688,0.9577637-5.4980469,4.4342041-8.1591797,7.6254883
			c-1.9814453,2.4602051-5.0373535,5.1762695-9.8920898,6.3242188c-9.4313965,2.2298584-18.1828613-2.248291-20.0251465-10.0675049
			c-2.5517578-10.7839355,7.2087402-17.6491699,14.7612305-19.4331055
			c13.2111816-3.1218262,33.8212891,3.3887939,41.088623,34.1248779
			c4.0795898,17.2542725,3.7944336,34.1174316-14.8051758,38.5151367l-73.8718262,17.4663086
			c-5.9294434,1.4001465-13.8764648,2.7088623-12.8530273,7.0223389c0.7019043,2.9683838,3.3046875,4.3428955,6.8432617,6.0683594
			L2438.5112305,1159.8847656z M2478.5544434,1107.7160645c-7.8303223-23.4835205-22.8474121-20.7856445-36.5998535-17.5358887
			c-11.3249512,2.6759033-20.5002441,5.987915-18.4604492,14.6149902
			c1.2719727,5.3919678,9.9504395,9.5996094,15.9675293,12.1657715L2478.5544434,1107.7160645z"/>
		<path class="st1" d="M2377.0827637,1219.0100098l5.5273438-0.4862061l0.8188477,9.3839111l167.2573242-14.677124
			l-0.8481445-9.6580811l5.5197754-0.4862061l2.2519531,25.6695557c0.2631836,3.0340576,2.1054688,8.1591797,3.1730957,10.8460693
			l-19.3161621,1.696167c8.722168,1.1807861,20.0690918,6.8579102,21.4729004,22.8656006
			c2.5222168,28.7036133-35.2983398,41.4798584-59.5859375,43.611084
			c-41.395752,3.633667-64.1552734-18.0109863-65.902832-37.8828125
			c-0.6726074-7.7277832,5.1982422-16.8631592,15.1416016-20.7965088l-66.7875977,5.8598633l0.8188477,9.3839111
			l-5.5197754,0.4862061L2377.0827637,1219.0100098z M2513.9841309,1276.8046875
			c17.3933105-1.5279541,42.9604492-4.8837891,41.7758789-18.4057617
			c-1.7692871-20.1495361-51.5507813-13.8327637-72.8044434-11.9683838
			c-34.5012207,3.0268555-37.9960938,13.9020996-37.3452148,21.355835
			c0.6799316,7.7279053,10.1403809,14.1287842,38.2956543,11.6577148L2513.9841309,1276.8046875z"/>
	</g>
	<g>
		<path class="st1" d="M347.8392334,1468.9490967l-2.3395691-16.1795654l6.0244141-0.8773193l8.7733765,60.6021729
			c6.4996033,44.9709473-14.3518066,61.4210205-40.9497681,65.2667236
			c-38.3908691,5.5563965-56.3251343-11.9976807-62.0351563-51.4852295l-1.9886322-13.7156982l-70.7427216,10.2355957
			l2.6174011,18.0950928l-6.0317078,0.8701172l-9.2412872-63.8848877l6.0316925-0.8773193l2.3395691,16.1868896
			L347.8392334,1468.9490967z M262.7447205,1521.2823486c2.5808411,17.8319092,5.9732056,29.6467285,44.0862732,24.1414795
			l19.4696045-2.8148193c18.9139404-2.734375,31.2113037-6.7554932,27.482605-32.534668l-1.6669312-11.5223389
			l-90.7533569,13.1381836L262.7447205,1521.2823486z"/>
		<path class="st1" d="M252.8892975,1603.4963379c28.4403839-7.3111572,65.3909454,1.7766113,71.9417572,27.2633057
			c6.5507813,25.4866943-21.4216919,51.2730713-49.8620911,58.5842285
			c-36.4826508,9.3875732-66.2902222-6.404541-71.6712341-27.3291016
			C197.9167328,1641.09021,216.4066315,1612.8764648,252.8892975,1603.4963379z M285.0218201,1626.1170654l-49.3649139,12.6994629
			c-14.7539063,3.8017578-30.4436493,8.4078369-26.9927826,21.8237305
			c3.4508667,13.4160156,19.4184265,9.8774414,34.1723328,6.0828857l49.3648987-12.6921387
			c15.8286438-4.0795898,30.7141724-8.4736328,27.2633057-21.8896484
			C316.0137939,1618.7181396,300.8504639,1622.052002,285.0218201,1626.1170654z"/>
		<path class="st1" d="M283.8885803,1792.0802002c-34.7060394,3.2607422-43.3990021-10.3964844-46.9376068-20.3104248
			c-9.5776062-26.8757324,13.3574829-53.2836914,41.5346527-63.3292236
			c40.4380188-14.4174805,70.0481873,2.661377,76.7452087,21.4509277
			c4.4671021,12.5167236-0.5044861,34.8815918-21.8896179,42.5070801
			c-14.8781738,5.293335-23.0740051-1.1916504-25.303894-7.4573975
			c-3.2534485-9.1242676,5.3444519-17.1811523,14.7319641-20.5296631
			c7.5597534-2.7052002,11.5077515,1.7692871,15.8140259,2.2956543c1.5865173,0.3217773,3.0780029,0.3729248,4.6425781-0.1827393
			c6.5215759-2.3249512,9.2047424-7.9910889,6.9748535-14.2493896c-4.8399963-13.5695801-18.102417-11.1934814-35.3201904-5.0447998
			l-40.964386,14.5931396c-15.9163818,5.6807861-36.5776978,14.5198975-30.5313721,31.4744873
			c4.3720703,12.2608643,23.6515808,16.8594971,40.5111084,14.6734619L283.8885803,1792.0802002z"/>
		<path class="st1" d="M325.2843323,1885.1219482c-34.3039246,6.2729492-44.1520691-6.5800781-48.5314331-16.1575928
			c-11.8806152-25.9400635,8.6710205-54.2487793,35.8685303-66.699707
			c39.0415344-17.8757324,70.0262146-3.4289551,78.3316956,14.7027588
			c5.5418396,12.0926514,2.5296631,34.8010254-18.1243591,44.2470703
			c-14.3518066,6.5800781-23.0812988,0.8261719-25.8522339-5.2202148
			c-4.0284424-8.8172607,3.8310547-17.5905762,12.8968811-21.7432861c7.303833-3.3411865,11.6247253,0.7749023,15.9529114,0.9064941
			c1.6084595,0.1901855,3.0999451,0.1170654,4.6060486-0.5701904c6.2948914-2.8952637,8.4882507-8.7587891,5.7173157-14.8123779
			c-5.9951477-13.0870361-19.0090027-9.5776367-35.634552-1.9594727l-39.5387268,18.1170654
			c-15.368042,7.0186768-35.1885986,17.6271973-27.6873474,33.9968262
			c5.417572,11.8441162,25.0260925,14.7393799,41.6370239,11.0983887L325.2843323,1885.1219482z"/>
		<path class="st1" d="M434.2644043,1920.1496582l1.6742554-0.9796143l-4.0211487-6.9456787l4.7888184-2.7781982
			l22.5037231,38.8294678l-4.7888184,2.7709961l-4.861908-8.3858643l-95.1546631,55.1552734l4.861908,8.3931885
			l-4.7961121,2.7783203l-22.5037231-38.8369141l4.7887878-2.7781982l4.0284424,6.9455566l78.3829041-45.4168701
			l-88.7354736,20.3688965l-3.114563,1.8131104l4.0211487,6.9456787l-4.7888184,2.7781982l-22.5037231-38.836792
			l4.7961121-2.7783203l4.861908,8.3931885l95.1473694-55.1552734l-4.8619385-8.3786621l4.7961426-2.7781982l22.5037231,38.8222656
			l-4.7961121,2.7781982l-4.0284424-6.9528809l-76.4527588,44.3128662L434.2644043,1920.1496582z"/>
		<path class="st1" d="M497.2792358,2014.7341309l1.5645752-1.1479492l-4.7229919-6.4923096l4.48172-3.2607422
			l26.4152222,36.2926025l-4.4817505,3.253418l-5.710022-7.8302002l-88.9255676,64.725708l5.7026978,7.8374023l-4.48172,3.253418
			l-26.4078979-36.2851563l4.4817505-3.2607422l4.7229919,6.4921875l73.2504578-53.3128662l-86.1473389,29.4713135
			l-2.9171448,2.112793l4.7303162,6.4997559l-4.48172,3.2607422l-26.4152222-36.2852783l4.4817505-3.2680664l5.710022,7.8448486
			l88.9328613-64.7182617l-5.710022-7.8521729l4.4817505-3.2608643l26.4078979,36.2926025l-4.4817505,3.2607422
			l-4.7229919-6.4923096l-71.4592285,52.0042725L497.2792358,2014.7341309z M516.1347046,1940.3503418
			c9.8554077-7.164917,17.7807007-3.3483887,21.2023315,1.3599854c5.8708496,8.0714111-1.0674438,16.8886719-5.1032104,19.8204346
			c-1.5645752,1.1479492-3.6262817,1.6158447-5.6807251,2.0837402c-7.5524292,1.3891602-9.0073853-2.0179443-12.8091431,0.760376
			c-4.9277344,3.5897217-3.8456726,13.0722656,1.696167,20.697876c5.3810425,7.3842773,13.8546143,11.5003662,19.0090332,7.7570801
			c2.456543-1.7984619,2.0909424-3.2460938,2.2371826-5.4102783c0.2631836-2.9390869,3.0048828-9.0438232,6.1486816-11.3249512
			c4.0284424-2.9317627,14.5565186-6.8286133,20.4273682,1.2355957c3.4216309,4.708374,4.6279297,13.4233398-5.227478,20.5882568
			c-11.6466675,8.480957-32.3445435,10.1844482-47.0180359-9.9724121
			C496.6723938,1968.2351074,504.4880066,1948.8312988,516.1347046,1940.3503418z"/>
		<path class="st1" d="M522.414978,2167.3251953c-30.9992981,15.9602051-44.1520691,6.5141602-51.1268921-1.3671875
			c-18.899353-21.3706055-7.4573975-54.409668,14.9512939-74.2302246
			c32.15448-28.4477539,66.005127-23.6149902,79.2163696-8.6782227c8.8026123,9.9577637,12.5239868,32.5563965-4.4963989,47.595459
			c-11.8221436,10.4697266-21.8457031,7.4868164-26.2470093,2.5151367
			c-6.4191895-7.2600098-1.4476318-17.9489746,6.0170898-24.5507813c6.0170288-5.3225098,11.3468628-2.6394043,15.5361938-3.7580566
			c1.5864868-0.2924805,2.9902344-0.8041992,4.2404785-1.8935547c5.1835938-4.5913086,5.5637817-10.8571777,1.1624756-15.8286133
			c-9.5410767-10.7912598-20.9683838-3.6408691-34.6549072,8.4663086l-32.5784912,28.8059082
			c-12.6556091,11.2006836-28.5427246,27.1098633-16.6109314,40.5915527
			c8.6198425,9.7531738,28.2210388,6.8286133,43.0627136-1.4914551L522.414978,2167.3251953z"/>
		<path class="st1" d="M588.5516357,2188.6079102c9.0877686,8.5395508,12.3997192,7.8522949,35.3129272-10.9082031
			c14.710022-12.0268555,22.7230225-12.4729004,30.2023315-5.46875c8.6856689,8.1591797,7.2745972,19.3745117,1.0162964,26.0349121
			c-7.3916016,7.8742676-17.2908936,10.7402344-23.15448,5.2421875
			c-12.114563-11.3762207,12.8676758-20.595459,6.4119263-26.6564941
			c-3.2315674-3.0415039-7.8083496,1.0383301-12.5751953,5.2932129
			c-16.7717896,14.6442871-22.3721313,17.3640137-28.8717651,16.2016602l-0.3728638,0.7895508
			c17.0130615,17.4956055,6.5727539,34.2893066,1.8862915,40.8913574
			c-6.5654297,9.0292969-18.5630493,20.1860352-13.913147,24.543457c2.0178833,1.9008789,6.6896973,0.9724121,8.619873,0.1169434
			l0.3143921,3.7214355c-7.3550415,2.9755859-17.5540771,2.5078125-24.2218628-3.736084
			c-12.9188232-12.1364746-4.0357666-22.4160156,6.265625-37.4331055
			c8.6052246-12.8164063,19.9887085-24.5361328,7.8741455-35.9123535l-2.4199829-2.2736816l-37.9156494,40.394043
			l6.8651733,6.4338379l-3.7871704,4.0358887l-33.5216675-31.4526367l3.7871704-4.0432129l6.8651733,6.4484863
			l75.2537231-80.1813965l-6.8651733-6.4411621l3.7871704-4.0429688l33.5216675,31.467041l-3.7871704,4.0358887
			l-6.8651733-6.4338379l-33.5509033,35.7441406L588.5516357,2188.6079102z"/>
		<path class="st1" d="M687.7201538,2341.0966797c-12.0780029,4.3500977-20.3615723,2.8586426-27.6069336-2.7124023
			c-8.1226807-6.2583008-6.8724976-17.8684082-2.5223389-25.3479004
			c-8.8464966,3.3266602-23.6004028,5.2568359-34.8010864-3.3557129
			c-13.8253784-10.6450195-11.9025269-27.6799316-1.6011353-41.0739746
			c18.9066162-24.5803223,40.2990723-16.5234375,68.0449219,2.3833008l19.0820923-24.8066406
			c8.6125488-11.1933594,4.9277344-18.2268066-1.6596069-23.2861328
			c-9.4313965-7.2600098-14.1325073-3.8894043-15.3095703-2.3469238c-2.5369873,3.2973633-1.4695435,6.8945313-1.520752,11.0617676
			c0.0219727,3.1584473-0.6360474,7.1870117-3.6848145,11.142334c-5.9074097,7.6767578-15.5142822,9.723877-21.8822632,4.8251953
			c-8.7807007-6.7553711-5.5418701-18.2338867-0.8115234-24.3898926
			c8.2761841-10.7399902,28.3745728-18.7019043,53.3933105,0.5483398
			c14.052063,10.8132324,24.470459,24.0610352,12.8237915,39.2097168l-46.2649536,60.1489258
			c-3.7214355,4.8325195-9.0512085,10.8569336-5.5418701,13.5620117c2.4126587,1.8571777,5.3078613,1.2868652,9.138916,0.3950195
			L687.7201538,2341.0966797z M685.855835,2275.376709c-20.8880005-13.2697754-30.8311768-1.6962891-39.4364014,9.4899902
			c-7.0991211,9.2265625-12.1292114,17.5905762-5.1031494,22.986084c4.3939819,3.3779297,13.7741699,1.1625977,20.0617676-0.6433105
			L685.855835,2275.376709z"/>
		<path class="st1" d="M842.4241943,2310.6311035l-2.9244995,4.708252l-7.9984131-4.9714355L773.3264771,2403.6875
			l7.9983521,4.986084l-2.9317627,4.6938477l-39.0269165-24.3168945l2.9317627-4.7084961l7.9910889,4.9863281l28.5792847-45.8410645
			l-2.8220825-1.7546387c-13.6353149-8.4956055-25.3623657,7.6914063-35.8027344,18.1608887
			c-14.4614258,14.8125-21.0926514,19.1699219-31.671936,12.5751953
			c-9.8700562-6.1633301-10.8862915-16.581543-10.1843872-23.9804688l3.5239868-0.416748
			c-0.2924805,3.0925293,1.0893555,5.5783691,2.734314,6.6020508c5.6442261,3.5239258,20.178833-18.760498,27.1975098-23.1984863
			c9.2705688-5.9731445,17.5760498-5.6953125,34.7060547,1.3964844l0.4459839-0.7019043
			c-26.9854736-17.4736328-24.4119263-31.5402832-15.7701416-45.4094238
			c13.0430908-20.9245605,27.0220337-16.1210938,55.2357178,1.4621582L842.4241943,2310.6311035z M808.4638672,2295.9941406
			l-7.0479736-4.3867188c-5.4102173-3.3630371-13.5183105-7.1210938-25.5378418,12.151123
			c-7.6182251,12.2243652-13.5914307,22.8693848,3.3265381,33.4194336l2.595459,1.6157227L808.4638672,2295.9941406z"/>
		<path class="st1" d="M843.3234253,2368.0090332l52.0627441,25.9545898l-5.5637817,11.1640625l-52.0627441-25.9619141
			L843.3234253,2368.0090332z"/>
		<path class="st1" d="M980.590332,2318.2346191l-15.3826294-5.541748l2.0617065-5.7319336l56.3178101,20.2663574
			l-2.0690308,5.7321777l-12.772583-4.598877l-46.7109375,129.831543l84.8897705-102.5390625l4.3135986-12.0048828
			l-12.772583-4.5986328l2.0617676-5.7246094l56.317749,20.2592773l-2.0689697,5.7246094l-15.3826904-5.5273438
			l-57.3048706,159.2807617l15.3754272,5.5419922l-2.0617676,5.7319336l-56.3105469-20.2592773l2.0690918-5.7392578
			l12.7652588,4.5913086l46.4331055-129.0344238l-85.079895,103.0651855l-3.8383179,10.6889648l12.772583,4.5915527
			l-2.0617676,5.746582l-56.3178101-20.2592773l2.0690308-5.746582l15.3826904,5.5344238L980.590332,2318.2346191z"/>
		<path class="st1" d="M1099.1260986,2533.6213379l7.8375244,1.7619629l-1.2209473,5.402832l-43.5013428-9.7822266
			l1.213623-5.4030762l9.1828613,2.0617676l24.1340332-107.2763672l-9.1900635-2.076416l1.213623-5.395752l43.508667,9.7824707
			l-1.213623,5.402832l-7.8375244-1.7619629L1112.432373,2474.4375l26.2177734,5.9001465l10.8132324-48.1000977
			l-7.8375244-1.7692871l1.2209473-5.4030762l43.5013428,9.7824707l-1.213623,5.4101563l-9.1828613-2.0690918
			l-24.1268311,107.2839355l9.1828613,2.0690918l-1.213623,5.4101563l-43.508667-9.796875l1.213623-5.402832l7.8375244,1.7619629
			l12.0999756-53.7663574l-26.2177734-5.8928223L1099.1260986,2533.6213379z"/>
		<path class="st1" d="M1281.9049072,2447.2912598l-4.5183105,49.1162109l-5.4979248-0.6872559
			c0.9577637-20.8220215-4.2404785-46.0456543-19.5280762-46.5720215l-13.7523193,109.097168l9.3436279,1.1696777
			l-0.6945801,5.4980469l-45.6142578-5.746582l0.6945801-5.4980469l9.3436279,1.1696777l13.7523193-109.0822754
			c-16.8668213-3.5239258-26.927002,23.1325684-30.4875488,40.2697754l-5.4907227-0.7019043l7.8156738-48.6994629
			L1281.9049072,2447.2912598z"/>
		<path class="st1" d="M1370.6184082,2544.1054688c-7.8082275,16.0551758-18.3071289,29.800293-34.9107666,29.1713867
			c-25.4647217-0.9504395-46.0310059-29.1713867-44.7003174-64.6013184
			c1.2502441-33.2145996,22.2770996-61.8083496,43.3186035-61.0187988
			c17.9853516,0.6726074,41.1105957,19.8352051,39.6118164,59.7028809l-52.8742676-1.9814453l-0.9431152,25.1870117
			c-0.6434326,17.1520996,0.2923584,36.5996094,16.6254883,37.2138672c14.6662598,0.5410156,26.130127-16.7719727,30.3486328-25.75
			L1370.6184082,2544.1054688z M1347.0180664,2500.8015137l0.4825439-12.7287598
			c0.6287842-16.8886719,0.175415-34.3696289-11.9976807-34.822998
			c-10.7984619-0.4094238-12.8822021,10.8862305-13.3354492,22.7814941l-0.8919678,23.7978516L1347.0180664,2500.8015137z"/>
		<path class="st1" d="M1398.8431396,2630.5524902l-0.3216553-5.5270996l9.3947754-0.5410156l-9.6287842-167.5644531
			l-9.6762695,0.5483398l-0.3216553-5.5270996l25.7095947-1.4770508c3.0488281-0.175293,8.2177734-1.8569336,10.9375-2.8513184
			l1.1113281,19.3601074c1.4403076-8.685791,7.4573975-19.8425293,23.4980469-20.7636719
			c28.762085-1.659668,40.3795166,36.5117188,41.7832031,60.8432617
			c2.3834229,41.4689941-19.9228516,63.5632324-39.8311768,64.7111816
			c-7.7497559,0.4458008-16.6986084-5.7028809-20.3249512-15.7556152l3.8457031,66.9116211l9.4020996-0.5410156l0.3143311,5.5273438
			L1398.8431396,2630.5524902z M1460.7028809,2495.5009766c-1.001709-17.4226074-3.5825195-43.0773926-17.1373291-42.295166
			c-20.1861572,1.1625977-15.3681641,51.0976563-14.1470947,72.3876953
			c1.9958496,34.5600586,12.7506104,38.3837891,20.215332,37.9597168
			c7.7497559-0.4533691,14.4249268-9.7092285,12.8017578-37.9157715L1460.7028809,2495.5009766z"/>
		<path class="st1" d="M1614.3101807,2537.0283203c-5.1762695,11.7416992-11.9683838,16.7277832-21.0050049,18.138916
			c-10.1258545,1.5864258-17.6856689-7.3330078-20.112915-15.645752
			c-3.6848145,8.7001953-12.4655762,20.7270508-26.4224854,22.9057617
			c-17.2470703,2.6977539-28.2722168-10.4477539-30.875-27.138916
			c-4.7814941-30.6704102,15.8139648-40.6062012,48.6411133-47.6906738l-4.8254395-30.940918
			c-2.1787109-13.9570313-9.8115234-16.1357422-18.0292969-14.848877
			c-11.770874,1.8349609-12.5605469,7.5595703-12.253418,9.4750977c0.6433105,4.1088867,3.9918213,5.8344727,6.9675293,8.7297363
			c2.3029785,2.1640625,4.7741699,5.4248047,5.541748,10.3525391c1.4915771,9.5922852-3.6481934,17.9633789-11.5881348,19.1989746
			c-10.9521484,1.7109375-17.0350342-8.5612793-18.2340088-16.2233887
			c-2.0909424-13.4160156,5.9951172-33.4631348,37.2064209-38.3322754
			c17.5175781-2.734375,34.3039551-1.1479492,37.2576904,17.7368164l11.697876,75.005127
			c0.9431152,6.0244141,1.6376953,14.052002,6.0170898,13.3647461c3.0048828-0.4753418,4.5839844-2.9609375,6.5799561-6.3535156
			L1614.3101807,2537.0283203z M1565.3912354,2493.0737305c-24.0244141,5.9804688-22.49646,21.1657715-20.317627,35.137207
			c1.7911377,11.4931641,4.3865967,20.9099121,13.1453857,19.5354004
			c5.4760742-0.8479004,10.3453369-9.1826172,13.3647461-14.987793L1565.3912354,2493.0737305z"/>
		<path class="st1" d="M1658.4987793,2470.7600098c12.0706787-3.1291504,13.255127-6.2875977,9.6580811-35.6784668
			c-2.3031006-18.862793,1.6010742-25.8815918,11.5223389-28.4404297
			c11.5296631-2.9902344,20.2519531,4.1965332,22.5402832,13.0505371c2.7050781,10.454834-0.1682129,20.354248-7.9472656,22.3647461
			c-16.0917969,4.1601563-10.520752-21.8896484-19.0966797-19.6669922
			c-4.291626,1.1113281-3.3046875,7.1430664-2.2445068,13.4523926c3.3996582,22.0065918,2.7124023,28.1918945-1.7547607,33.0610352
			l0.4825439,0.7458496c23.8709717-5.0300293,32.4761963,12.7653809,35.5615234,20.2519531
			c4.1162109,10.3818359,7.1356201,26.480957,13.2989502,24.887207c2.6759033-0.6872559,4.394043-5.1325684,4.708374-7.2236328
			l3.3046875,1.7182617c-1.4111328,7.8010254-7.2600098,16.1794434-16.0991211,18.4680176
			c-17.166626,4.4377441-21.1000977-8.5615234-28.2868652-25.2893066
			c-6.229126-14.1252441-10.0455322-30.0195313-26.1374512-25.8596191l-3.2169189,0.8334961l13.8692627,53.6271973
			l9.1170654-2.3540039l1.3818359,5.3588867l-44.510376,11.5151367l-1.3818359-5.3664551l9.1170654-2.3540039
			l-27.5338135-106.4504395l-9.1169434,2.354248l-1.3818359-5.3664551l44.5102539-11.5078125l1.3818359,5.3664551
			l-9.1170654,2.354248l12.2755127,47.4492188L1658.4987793,2470.7600098z"/>
		<path class="st1" d="M1789.4268799,2371.6208496l18.3364258,45.8115234l-5.2128906,1.8862305
			c-8.6270752-18.9797363-24.7336426-39.0854492-38.5955811-32.5930176l37.418457,103.423584l8.8538818-3.2023926
			l1.8862305,5.2128906l-43.2454834,15.6459961l-1.8862305-5.2128906l8.8537598-3.2023926l-37.4111328-103.4382324
			c-16.6182861,4.5476074-13.4525146,32.8564453-8.8172607,49.737793l-5.2128906,1.8937988l-15.2071533-46.9450684
			L1789.4268799,2371.6208496z"/>
		<path class="st1" d="M1860.3304443,2347.4719238l-0.833374-1.7473145l-7.2526855,3.4362793l-2.3688965-5.0007324
			l40.5330811-19.2285156l2.3687744,5.0009766l-8.7513428,4.1525879l47.1276855,99.3439941l8.758667-4.1525879l2.3762207,4.9934082
			l-40.5404053,19.2355957l-2.3687744-5.0007324l7.2526855-3.4509277l-38.8222656-81.8117676l13.0137939,90.0734863
			l1.5427246,3.2607422l7.2526855-3.4509277l2.3687744,5.0080566l-40.5330811,19.2285156l-2.3687744-4.9936523l8.7514648-4.152832
			l-47.1276855-99.34375l-8.7514648,4.1525879l-2.3760986-5.0007324l40.5256348-19.2355957l2.3762207,5.0080566
			l-7.2526855,3.4362793l37.8717041,79.8232422L1860.3304443,2347.4719238z"/>
		<path class="st1" d="M1936.6442871,2297.6757813c19.9083252-12.0488281,39.875-21.8603516,52.4868164-1.0090332
			c8.4736328,13.9790039,3.6190186,24.682373-9.6799316,38.5737305l0.4385986,0.7019043
			c16.9765625-5.1032715,34.6037598-7.0187988,44.927002,10.0307617
			c8.3201904,13.7597656,11.9610596,32.6079102-13.8764648,48.2390137l-46.6890869,28.2648926l-2.8659668-4.7375488
			l8.064209-4.8837891l-56.9465332-94.0800781l-8.064209,4.8693848l-2.873291-4.737793L1936.6442871,2297.6757813z
			 M1966.546875,2340.1315918c6.4046631-3.875,11.0325928-9.5996094,2.1422119-24.2875977l-4.3062744-7.1137695
			c-10.1844482-16.822998-18-10.4697266-22.0211182-8.0275879l-6.6385498,4.0063477l23.9512939,39.5827637L1966.546875,2340.1315918
			z M2003.8118896,2392.0627441c4.0284424-2.4492188,8.6125488-8.7880859-1.5718994-25.6037598l-5.4541016-9.0073242
			c-4.8839111-8.0568848-13.6280518-20.9099121-25.7060547-13.5913086l-8.5321045,5.1689453l30.1219482,49.7670898
			L2003.8118896,2392.0627441z"/>
		<path class="st1" d="M2090.9243164,2334.0415039l6.4191895-4.8254395l3.3193359,4.4233398l-35.6420898,26.8098145
			l-3.3337402-4.4230957l7.5231934-5.6662598l-66.1075439-87.9091797l-7.5377197,5.6586914l-3.3193359-4.4304199
			l35.6346436-26.8100586l3.3411865,4.4230957l-6.4191895,4.8400879l29.6467285,39.4072266l21.4729004-16.1430664
			l-29.6468506-39.421875l-6.4265137,4.8254395l-3.3192139-4.4233398l35.6418457-26.8098145l3.3339844,4.4230957
			l-7.5231934,5.6662598l66.1074219,87.9091797l7.5378418-5.6733398l3.326416,4.4304199l-35.6418457,26.8173828
			l-3.3410645-4.4304199l6.4191895-4.8254395l-33.1342773-44.0644531l-21.4802246,16.1503906L2090.9243164,2334.0415039z"/>
		<path class="st1" d="M2227.6794434,2208.8452148c2.2299805,12.6481934-0.6433105,20.5588379-7.3696289,26.7587891
			c-7.5378418,6.9455566-18.7824707,3.7287598-25.4135742-1.8349609c1.7766113,9.2924805,1.1623535,24.1633301-9.2341309,33.7409668
			c-12.8310547,11.8146973-29.3029785,7.0332031-40.7521973-5.4104004
			c-21.0195313-22.810791-9.416748-42.5361328,13.9204102-66.6704102l-21.2097168-23.0300293
			c-9.5703125-10.3891602-17.1154785-7.9472656-23.2348633-2.3322754
			c-8.7587891,8.0715332-6.2290039,13.2770996-4.9204102,14.7099609c2.8149414,3.0561523,6.5654297,2.6174316,10.6523438,3.3776855
			c3.1071777,0.5119629,6.9821777,1.8425293,10.3525391,5.5126953c6.5727539,7.1357422,6.9528809,16.9619141,1.0456543,22.4013672
			c-8.1594238,7.5085449-18.9140625,2.354248-24.1706543-3.3483887c-9.204834-9.9797363-13.6208496-31.1455078,9.6066895-52.5454102
			c13.0432129-12.012207,27.8774414-20.0251465,40.8327637-5.9584961l51.4194336,55.8278809
			c4.1381836,4.4890137,9.1682129,10.7766113,12.4216309,7.7644043c2.2446289-2.0617676,2.1713867-5.0007324,1.9375-8.934082
			L2227.6794434,2208.8452148z M2162.5881348,2199.5014648c-16.6401367,18.3364258-6.923584,30.1074219,2.6467285,40.5039063
			c7.8813477,8.5539551,15.2583008,14.9294434,21.7871094,8.934082c4.0725098-3.7578125,3.4875488-13.3937988,2.7783203-19.8862305
			L2162.5881348,2199.5014648z"/>
		<path class="st1" d="M2223.8337402,2051.3190918l4.1308594,3.6848145l-6.265625,7.0334473l82.0969238,73.2138672
			l6.2583008-7.0334473l4.1455078,3.6921387l-30.6118164,34.3259277l-4.1381836-3.6848145l6.2729492-7.0334473
			l-40.3283691-35.9633789l-2.215332,2.4782715c-10.6887207,12.005127,3.2753906,26.3056641,11.8149414,38.3764648
			c12.1364746,16.7790527,15.3022461,24.0534668,7.0041504,33.3605957
			c-7.7426758,8.6784668-18.1901855,7.9033203-25.3625488,5.9587402l0.1901855-3.5458984
			c2.9902344,0.8188477,5.6806641-0.1169434,6.9748535-1.5646973c4.4230957-4.9714355-15.0610352-23.088623-18.2487793-30.7507324
			c-4.2988281-10.1623535-2.6171875-18.2924805,7.2893066-33.9821777l-0.6286621-0.5483398
			c-21.7946777,23.6223145-35.2324219,18.6945801-47.4274902,7.8083496
			c-18.4020996-16.40625-11.2956543-29.3688965,10.8278809-54.1831055L2223.8337402,2051.3190918z M2203.6330566,2082.3110352
			l-5.5419922,6.1999512c-4.2404785,4.744873-9.3068848,12.114502,7.6403809,27.2338867
			c10.7546387,9.5776367,20.2297363,17.2836914,33.4921875,2.3981934l2.0324707-2.2666016L2203.6330566,2082.3110352z"/>
		<path class="st1" d="M2280.4587402,2060.2751465l34.4353027-46.8863525l10.0383301,7.3842773l-34.4208984,46.8790283
			L2280.4587402,2060.2751465z"/>
		<path class="st1" d="M2341.6604004,1920.0838623c5.8269043-10.074707,7.1794434-17.9268799-17.8173828-33.368042
			c-36.7092285-22.8400879-42.2438965-33.7337646-32.8051758-50.0302734
			c8.6052246-14.8635254,23.9807129-12.6774902,32.1325684-7.961792
			c10.3085938,5.9658203,16.3696289,16.5231934,10.8132324,26.1008301
			c-5.5493164,9.5848389-16.0554199,8.9488525-22.7670898,5.0665283c-1.4401855-0.833374-2.8806152-1.6595459-3.9406738-2.6027832
			c-1.8789063-1.732666-3.0048828-3.6555176-5.402832-5.052002c-1.9155273-1.1112061-4.1821289-2.734375-5.6955566-0.0876465
			c-4.8618164,8.3858643,18.9140625,21.5093994,30.8605957,29.0690918
			c16.267334,10.0528564,21.6262207,15.7043457,23.052002,24.8579102l1.0966797,0.3217773
			c4.9570313-8.0130615,22.189209-30.0489502,58.2407227-12.7067871
			c17.722168,8.6563721,38.1420898,23.6881104,43.5524902,14.329834c0.9797363-1.6669922,0.9431152-3.2900391,0.3435059-5.5565186
			l4.8474121-0.0731201c1.8789063,7.8083496-0.2341309,15.8652344-1.8278809,19.7401123
			c-0.7312012,1.8277588-1.5644531,3.2607422-2.7783203,4.7961426
			c-11.0471191,16.3331299-21.4143066,13.2113037-59.5200195-5.0008545
			c-18.8115234-8.9780273-36.0073242-17.9708252-46.2722168-0.2265625l-5.9731445,10.3087158l74.3178711,43.026123
			l8.1884766-14.1544189l5.2712402,3.0560303l-31.2185059,53.9344482l-5.2788086-3.0488281l8.0495605-13.9057617
			l-146.4863281-84.7947998l-8.0495605,13.9058838l-5.263916-3.0561523l31.2185059-53.9416504l5.2788086,3.0560303
			l-8.1958008,14.1544189l66.8969727,38.7198486L2341.6604004,1920.0838623z"/>
		<path class="st1" d="M2498.3237305,1794.010376c7.1210938,10.6669922,7.6767578,19.0675049,4.0136719,27.4460449
			c-4.1086426,9.3875732-15.682373,10.973999-23.9951172,8.5540771c5.3591309,7.7790527,10.7912598,21.6483154,5.1252441,34.5889893
			c-6.9968262,15.989502-23.9880371,18.2268066-39.4729004,11.456665
			c-28.4257813-12.4289551-25.7426758-35.1447754-14.0812988-66.6339111l-28.6889648-12.5458984
			c-12.940918-5.6588135-18.8701172-0.3947754-22.1967773,7.2233887
			c-4.7741699,10.9228516-0.3728027,14.6516113,1.4111328,15.4265137c3.8017578,1.6669922,7.0551758-0.2338867,11.1054688-1.1843262
			c3.0561523-0.7750244,7.1357422-1.1113281,11.7053223,0.8773193c8.8757324,3.8895264,13.1818848,12.7214355,9.9504395,20.0910645
			c-4.4379883,10.1478271-16.3623047,9.7677002-23.4614258,6.6604004
			c-12.4362793-5.4321289-25.0041504-23.0301514-12.3486328-51.9603271
			c7.1064453-16.230835,17.4589844-29.5444336,34.9692383-21.8896484l69.5290527,30.4144287
			c5.5930176,2.4418945,12.7287598,6.1779785,14.5053711,2.1202393c1.2209473-2.7928467-0.0366211-5.46875-1.8352051-8.963501
			L2498.3237305,1794.010376z M2434.9870605,1811.6448975c-7.859375,23.4833984,5.7758789,30.3411865,18.7094727,36.0074463
			c10.6594238,4.6571045,19.9812012,7.5230713,23.5270996-0.5922852c2.2299805-5.0739746-2.1787109-13.6572266-5.4467773-19.31604
			L2434.9870605,1811.6448975z"/>
		<path class="st1" d="M2571.4936523,1799.5667725l-5.263916-1.7108154l2.8879395-8.9560547l-159.6975098-51.6386719
			l-2.9831543,9.2265625l-5.263916-1.696167l7.9179688-24.5142822c0.9431152-2.8951416,1.2429199-8.3273926,1.3012695-11.2226563
			l18.4460449,5.9659424c-7.5668945-4.4890137-15.7993164-14.1324463-10.8569336-29.4200439
			c8.861084-27.4022217,48.6484375-24.4338379,71.8393555-16.9472656
			c39.5241699,12.7799072,52.0554199,41.5858154,45.9140625,60.5510254
			c-2.3835449,7.3769531-11.354248,13.5109863-22.0432129,13.2478027l63.7824707,20.6174316l2.8952637-8.9561768
			l5.2714844,1.7034912L2571.4936523,1799.5667725z M2467.9750977,1693.0286865
			c-16.6108398-5.366333-41.4616699-12.2388916-45.6362305,0.6799316
			c-6.2143555,19.2357178,42.0756836,32.8125,62.3786621,39.3779297
			c32.9294434,10.6523438,40.3869629,1.9958496,42.6899414-5.1251221c2.390625-7.3696289-3.8310547-16.9472656-30.7067871-25.647583
			L2467.9750977,1693.0286865z"/>
		<path class="st1" d="M2453.1188965,1555.4400635l48.5095215,9.0146484l-1.1992188,5.4029541
			c-20.6464844-2.8586426-46.2355957,0-48.1657715,15.1706543l107.371582,23.710083l2.0324707-9.1900635l5.4030762,1.1843262
			l-9.9067383,44.9051514l-5.4174805-1.1917725l2.0397949-9.2047119l-107.3789063-23.7027588
			c-5.052002,16.4720459,20.5588379,28.9302979,37.2941895,34.0407715l-1.1843262,5.4102783l-47.7858887-12.25354
			L2453.1188965,1555.4400635z"/>
		<path class="st1" d="M2575.2810059,1460.6875c9.8625488,8.2104492,12.7724609,16.1210938,11.6391602,25.1943359
			c-1.2792969,10.1697998-11.9316406,14.9804688-20.595459,15.0097656
			c7.3549805,5.9439697,16.4865723,17.6929932,14.7246094,31.7158203
			c-2.1640625,17.3273926-17.8537598,24.2875977-34.6181641,22.1820068
			c-30.7800293-3.8676758-34.6550293-26.407959-32.4030762-59.9075928l-31.0651855-3.9041748
			c-14.0153809-1.7546387-18.2192383,4.9788818-19.2429199,13.2185059
			c-1.4841309,11.8221436,3.8017578,14.1690674,5.7246094,14.4030762c4.1235352,0.5117188,6.6970215-2.2226563,10.3088379-4.2844238
			c2.7270508-1.6083984,6.543457-3.0925293,11.4785156-2.4711914c9.6213379,1.2064209,16.2526855,8.4664307,15.2509766,16.4355469
			c-1.3818359,10.9959717-12.9260254,14.0081787-20.6174316,13.0430908
			c-13.4743652-1.696167-30.5168457-14.9952393-26.5759277-46.3308105
			c2.2004395-17.5979004,8.3637695-33.2949219,27.3361816-30.9188232l75.3195801,9.4605713
			c6.0463867,0.7530518,13.9423828,2.3104248,14.4980469-2.0909424c0.3874512-3.0268555-1.5791016-5.2275391-4.291748-8.0861816
			L2575.2810059,1460.6875z M2519.526123,1495.5690918c-0.8774414,24.7409668,14.1396484,27.4606934,28.1552734,29.2299805
			c11.5588379,1.4476318,21.3193359,1.557251,22.4157715-7.2380371c0.6872559-5.4980469-5.9731445-12.4874268-10.7180176-16.9838867
			L2519.526123,1495.5690918z"/>
	</g>
	<rect x="1062.2821045" y="1330.1323242" class="st1" width="135.4580078" height="59.892971"/>
	<rect x="1416.5115967" y="1330.1323242" class="st1" width="135.4580078" height="59.892971"/>
</g>
</svg>
